<svg width="20" height="24" viewBox="0 0 20 24" fill="none" xmlns="http://www.w3.org/2000/svg">
  <path d="M18.0624 17.4999H18.3463V22.695H17.4961C11.9664 22.695 8.31594 19.545 8.31594 14.4031V11.8689L10.565 11.3025C11.0913 11.1698 11.5698 10.8921 11.9459 10.5008C12.322 10.1095 12.5807 9.62046 12.6925 9.08936C12.8042 8.55826 12.7646 8.00644 12.5781 7.49675C12.3916 6.98706 12.0657 6.54 11.6376 6.20646C11.2094 5.87293 10.6962 5.66634 10.1564 5.61023C9.61652 5.55411 9.07179 5.65072 8.58418 5.88906C8.09657 6.1274 7.6857 6.49788 7.39835 6.95831C7.111 7.41874 6.95873 7.95061 6.95888 8.49334V19.8237H1.36719V8.29315C1.36731 7.94619 1.38932 7.59958 1.43308 7.25539C1.95512 3.16394 5.52833 0 9.85673 0C13.8025 0 17.121 2.63049 18.0726 6.19483C18.5695 8.06365 18.3858 10.0483 17.5543 11.7941C16.7996 13.3631 15.5763 14.6591 14.0534 15.5029C14.5792 17.14 15.8729 17.4999 18.0624 17.4999Z" fill="currentColor"/>
</svg>
